PathFileType	4	(X/Y/Z)	walk-thru1-1-TP.trc
DataRate	CameraRate	NumFrames	NumMarkers	Units	OrigDataRate	OrigDataStartFrame	OrigNumFrames
120.00	120.00	       4	60	mm	120.00	325	       432
Frame#	Time	Top.Head			Front.Head			Rear.Head			Jaw			C7			R.Clavicle			L.Clavicle			R.Shoulder			L.Shoulder			R.Scapula			L.Scapula			R.Scap.Inf			R.Biceps.Lateral			R.Elbow			R.Elbow.Medial			R.Forearm			R.Ulna			R.Radius			R.Wrist			R.Thumb.M1			R.Thumb.M2			R.Thumb.M3			R.Finger3.M1			R.Finger3.M2			R.Finger3.M3			L.Biceps.Lateral			L.Elbow			L.Elbow.Medial			L.Forearm			L.Ulna			L.Radius			L.Wrist			L.Thumb.M1			L.Thumb.M2			L.Thumb.M3			L.Finger3.M1			L.Finger3.M2			L.Finger3.M3			V.Sacral			R.ASIS			L.ASIS			R.Thigh			R.Thigh.Front			R.Knee			R.Knee.Medial			R.Shank			R.Ankle			R.Ankle.Medial			R.Heel			R.Toe			R.MedFoot			L.Thigh			L.Knee			L.Knee.Medial			L.Shank			L.Ankle			L.Ankle.Medial			L.Heel			L.Toe			L.MedFoot			V_mid_ASIS			V_R_Knee_JC			V_L_Knee_JC			V_R_Elbow_JC			V_L_Elbow_JC			V_R_Ankle_JC			V_L_Ankle_JC			V_R_Wrist_JC			V_L_Wrist_JC			V_R_ScaTrpz_1stMC_JC			V_R_1stMC_1stPP_JC			V_R_1stPP_1stDP_JC			V_R_LunCap_3rdMC_JC			V_R_3rdMC_3rdPP_JC			V_R_3rdPP_3rdMP_JC			V_R_3rdMP_3rdDP_JC			V_L_ScaTrpz_1stMC_JC			V_L_1stMC_1stPP_JC			V_L_1stPP_1stDP_JC			V_L_LunCap_3rdMC_JC			V_L_3rdMC_3rdPP_JC			V_L_3rdPP_3rdMP_JC			V_L_3rdMP_3rdPP_JC			V_ROOT_JC			V_R_Hip_JC			V_L_Hip_JC			V_R_GlenHum_JC			V_L_GlenHum_JC			V_ForeHead_Ctr			V_Vertex			V_Sagit_Lambdoid_Suture			V_R_FrontoTemp			V_L_FrontoTemporal			V_R_ParietalOccip			V_L_ParietalOcciptal			V_R_Temporal			V_L_Temporal			V_mid_FrontRearHead			V_mid_RLGlenHumCtrs			V_C7_vert			V_C1_vert			V_Mid_Hip			
		X1	Y1	Z1	X2	Y2	Z2	X3	Y3	Z3	X4	Y4	Z4	X5	Y5	Z5	X6	Y6	Z6	X7	Y7	Z7	X8	Y8	Z8	X9	Y9	Z9	X10	Y10	Z10	X11	Y11	Z11	X12	Y12	Z12	X13	Y13	Z13	X14	Y14	Z14	X15	Y15	Z15	X16	Y16	Z16	X17	Y17	Z17	X18	Y18	Z18	X19	Y19	Z19	X20	Y20	Z20	X21	Y21	Z21	X22	Y22	Z22	X23	Y23	Z23	X24	Y24	Z24	X25	Y25	Z25	X26	Y26	Z26	X27	Y27	Z27	X28	Y28	Z28	X29	Y29	Z29	X30	Y30	Z30	X31	Y31	Z31	X32	Y32	Z32	X33	Y33	Z33	X34	Y34	Z34	X35	Y35	Z35	X36	Y36	Z36	X37	Y37	Z37	X38	Y38	Z38	X39	Y39	Z39	X40	Y40	Z40	X41	Y41	Z41	X42	Y42	Z42	X43	Y43	Z43	X44	Y44	Z44	X45	Y45	Z45	X46	Y46	Z46	X47	Y47	Z47	X48	Y48	Z48	X49	Y49	Z49	X50	Y50	Z50	X51	Y51	Z51	X52	Y52	Z52	X53	Y53	Z53	X54	Y54	Z54	X55	Y55	Z55	X56	Y56	Z56	X57	Y57	Z57	X58	Y58	Z58	X59	Y59	Z59	X60	Y60	Z60	

325	2.700	-583.44928	71.95230	1798.53235	-680.72791	58.10290	1683.72510	-454.35574	72.47324	1701.75793	-635.03864	58.92052	1520.24426	-440.67557	67.66191	1566.31799	-543.26520	178.24049	1468.69287	-540.91095	-49.66864	1475.53162	-506.16718	267.30307	1464.03931	-465.81830	-139.85916	1488.55322	-394.35416	158.31163	1479.96033	-384.22861	-8.49682	1486.65186	-344.65436	169.67949	1393.32178	-470.07455	330.31406	1285.21692	-447.72955	352.62122	1129.32397	-428.05099	263.50818	1108.84985	-549.35370	295.02670	1030.50159	-537.49371	337.50687	926.17438	-600.22766	272.88776	908.89325	-608.76727	311.72717	861.65906	-616.61621	265.54587	879.11487	-656.34467	228.79526	845.40485	-697.29431	220.98888	826.15649	-662.46814	307.36996	800.58185	-684.22858	266.03555	752.84314	-677.42578	222.80348	724.55951	-431.14944	-202.73898	1340.07813	-405.18457	-246.15968	1166.67346	-371.39993	-175.70557	1148.69775	-472.98148	-236.50334	1060.64929	-415.97122	-253.06212	973.19080	-490.32053	-215.81158	918.40149	-475.76315	-248.84534	861.67792	-500.47147	-206.57623	854.40314	-504.61087	-172.32625	805.03168	-512.90503	-178.49255	746.08862	-489.40408	-265.64832	787.11243	-483.75528	-243.76048	729.84979	-466.46384	-222.02788	685.63477	-342.01352	51.14061	1090.36328	-434.43802	238.76227	1029.11206	-444.77707	-138.45834	1034.02441	-448.27814	179.88959	625.60126	-510.23962	89.74482	544.31854	-450.06494	144.53073	492.72830	-442.93713	31.60240	500.22040	-429.06964	93.72518	313.75955	-291.36005	112.89146	75.89736	-327.64188	16.48506	97.75693	-232.24884	53.44313	59.39796	-471.88812	73.90922	45.00313	-401.59314	33.92668	68.95992	-578.97778	-131.03032	668.99011	-635.57019	-106.90467	529.98529	-637.95667	8.84406	526.13019	-654.72028	-62.70692	332.10019	-576.18915	-93.46819	83.48319	-603.91315	0.22101	123.27090	-522.50012	-35.01231	68.22416	-745.75494	-35.33897	67.97164	-693.88977	-10.98690	86.66785																																																																																																																															
326	2.708	-588.03229	70.96310	1797.94067	-686.36798	57.86395	1683.04480	-460.76779	70.81016	1701.29651	-640.24493	57.91612	1519.81897	-445.03183	66.51923	1564.74695	-548.44812	178.03403	1468.43896	-546.92938	-49.15157	1475.29749	-512.88354	266.20404	1463.56238	-471.78522	-141.60716	1488.57715	-398.90411	158.35738	1479.61646	-389.35294	-8.77828	1486.69690	-350.36710	169.15631	1393.13464	-475.55600	329.97031	1284.45679	-453.84018	352.12637	1129.64197	-433.13553	262.99326	1108.00903	-555.22150	295.76077	1029.76135	-543.73248	336.70267	925.79773	-606.10797	271.81039	908.21906	-613.41382	311.45834	861.06799	-623.41144	266.28995	879.02826	-661.64417	229.16231	844.36584	-703.09448	221.35756	825.67633	-666.25830	309.01016	798.78595	-690.95197	264.53342	752.48419	-682.68610	222.41798	723.89471	-437.57288	-202.66176	1339.79504	-411.70050	-247.05125	1165.74866	-378.86014	-176.70383	1147.86743	-478.88651	-235.92596	1059.69446	-422.22351	-254.03532	971.66370	-496.93240	-216.23062	918.27405	-482.20737	-249.20486	860.77277	-507.57233	-205.73694	853.75684	-511.96088	-172.08553	805.25183	-519.99243	-176.03766	744.14386	-496.00238	-265.60291	786.63544	-490.78680	-243.89981	729.14844	-474.09674	-221.92297	685.44672	-347.67554	51.51692	1090.20337	-442.28354	238.22072	1029.00574	-452.76538	-139.19800	1032.44958	-452.36615	180.15428	625.66077	-513.47681	90.25734	543.53662	-451.62445	144.52173	492.20612	-446.51254	32.87190	499.28394	-431.98676	93.15264	313.63150	-292.02423	113.66772	76.38925	-327.69705	16.53508	97.99161	-231.94194	53.34463	60.10642	-472.28085	74.04574	44.83677	-401.72321	33.74659	68.96237	-584.32813	-130.12393	668.66425	-641.29486	-106.09570	528.98956	-643.57037	10.04203	525.75012	-664.77478	-61.40111	331.82764	-591.71021	-91.33404	80.84862	-620.11182	1.80372	121.92323	-538.82043	-32.72260	65.77449	-762.01483	-34.00666	69.59795	-709.98297	-10.01214	87.72933																																																																																																																															
327	2.717	-593.76587	71.36568	1797.59424	-691.98523	57.07426	1682.73523	-466.45932	71.45828	1700.91833	-646.54309	57.96773	1519.12451	-452.75705	67.63981	1564.07202	-553.64508	177.07040	1467.33423	-552.41748	-49.56898	1474.75647	-517.71753	267.40390	1463.05811	-477.23309	-141.60788	1487.07007	-405.95218	156.83060	1479.45459	-395.66135	-9.04240	1485.88843	-356.21887	169.02779	1392.74866	-480.96542	328.73209	1283.58765	-459.84985	351.12665	1128.47485	-438.18030	262.55124	1107.74231	-560.28882	294.71234	1028.71692	-548.88599	337.58768	924.98395	-612.27563	271.83163	907.86517	-617.69348	309.34592	860.11053	-627.80859	265.27771	877.68488	-666.87488	229.10741	843.71210	-707.74072	220.61247	824.37714	-671.91260	307.65308	798.41510	-695.43237	265.80063	751.13489	-688.83704	222.67982	723.17108	-443.32034	-203.11656	1338.69629	-418.08441	-246.36223	1164.80811	-384.31946	-176.37050	1146.36450	-486.24283	-236.18225	1059.19275	-429.36572	-253.53487	970.73383	-504.29660	-215.26729	917.60400	-489.68079	-249.15106	859.53314	-514.44855	-207.35115	852.98193	-520.70917	-173.03502	805.55170	-527.08142	-177.64502	744.05188	-503.55133	-265.14883	785.80853	-498.28058	-242.01427	729.23358	-481.40314	-220.23907	684.63757	-353.83994	50.80982	1089.63196	-446.07806	238.15536	1027.75916	-458.33063	-138.40761	1032.06055	-456.75131	180.78105	625.45007	-517.01819	90.19724	542.88989	-455.28024	144.18242	491.07117	-449.26620	31.69774	498.98682	-433.27484	93.08889	313.49258	-292.08389	113.79475	76.72645	-327.80432	16.75592	98.42896	-231.92407	53.76709	60.70877	-472.21533	74.11184	44.91119	-401.79041	34.28340	69.57871	-589.67975	-129.41252	667.42395	-645.89264	-105.13105	528.22498	-649.36432	10.16370	525.53442	-674.05292	-60.59650	331.47678	-607.06415	-89.01957	79.58717	-636.18457	3.03451	121.25973	-555.52228	-28.74464	63.18636	-778.19568	-31.64298	70.65417	-725.73328	-8.19030	88.38312																																																																																																																															
328	2.725	-599.60712	71.31693	1797.07349	-698.91064	56.84080	1682.14575	-472.13425	70.01086	1700.01013	-652.01910	57.64122	1519.33325	-458.66669	67.21018	1563.69055	-560.46490	177.48685	1466.40283	-558.41541	-50.28379	1473.87073	-522.49225	267.17459	1463.47314	-484.14792	-141.95544	1485.91040	-409.90216	157.05220	1479.76343	-401.04489	-10.00083	1485.66028	-362.28537	167.88551	1391.37085	-487.11520	328.79892	1282.85083	-464.96997	351.57227	1128.14941	-444.74503	261.93991	1107.19580	-565.80566	294.51044	1027.92041	-554.41296	337.05573	923.94482	-615.61371	271.27008	906.40961	-622.96271	310.65863	858.82770	-633.39417	264.74084	876.73486	-672.48761	228.93712	842.87579	-713.03015	220.23624	823.59235	-677.08008	307.42288	797.81940	-700.33307	266.06055	750.20404	-692.80725	221.21165	722.15161	-449.26880	-203.88536	1338.19751	-424.89548	-246.19225	1164.00122	-390.97614	-176.02240	1145.31238	-492.54196	-235.62181	1058.44641	-436.38171	-254.19014	970.01831	-511.18137	-215.13802	917.06696	-497.12161	-248.79410	859.59454	-521.41785	-205.17165	852.79358	-528.33502	-171.11115	805.06604	-535.21259	-176.73459	744.73840	-510.85632	-265.25735	784.82837	-505.93289	-243.49014	728.81610	-490.36703	-219.89342	684.19727	-359.61453	51.05245	1088.88049	-451.70148	237.67346	1028.09668	-464.46457	-139.08081	1031.53711	-459.58578	180.55931	624.55121	-521.21680	88.54160	541.16095	-457.77899	143.93130	490.50635	-452.64215	32.93633	498.24808	-435.76132	93.61606	312.35028	-291.89368	113.18806	76.69234	-327.79926	16.43959	99.23032	-231.94649	53.87138	61.26822	-471.97720	74.99937	45.64521	-401.73160	34.45599	69.35707	-595.49756	-130.05336	666.41223	-651.34491	-104.17637	527.50995	-654.35010	11.07242	524.94153	-684.15369	-59.55676	331.90591	-622.51678	-87.06324	78.13970	-650.85883	5.94168	121.01746	-571.18750	-24.73930	60.68087	-794.82013	-30.02230	71.78563	-741.96344	-7.12070	88.85310																																																																																																																															
